<?xml version="1.0" encoding="utf-8"?>
<!-- Generator: Adobe Illustrator 25.3.1, SVG Export Plug-In . SVG Version: 6.00 Build 0)  -->
<svg version="1.1" id="Layer_1" xmlns="http://www.w3.org/2000/svg" xmlns:xlink="http://www.w3.org/1999/xlink" x="0px" y="0px"
	 viewBox="0 0 571 571" style="enable-background: new 0 0 571 571" xml:space="preserve">
<style type="text/css">
	.st0{fill:url(#Path_7142_1_);margin: auto;}
	.st1{fill:none;margin: auto;}
</style>
<linearGradient id="Path_7142_1_" gradientUnits="userSpaceOnUse" x1="-1780.1899" y1="261.5162" x2="-1772.7881" y2="266.5826" gradientTransform="matrix(54.77 0 0 -80.09 97585.5 21483)">
	<stop  offset="0" style="stop-color: #30BAC6"/>
	<stop  offset="1" style="stop-color: #B6509E"/>
</linearGradient>
<path id="Path_7142" class="st0" d="M 469.4 196.5 c -1.8 -105 -81.5 -188.4 -177.9 -186.4 C 197.6 12 122 94.4 120.3 196.5 c 0 0.5 -0.1 1 -0.1 1.4 v -0.9 l -0.2 29 v 318.5 c 0.2 11.7 8.9 21.1 19.6 21.1 s 19.4 -9.5 19.4 -21.1 v -61.4 c 0 -11.7 8.7 -21.1 19.4 -21.1 s 19.4 9.5 19.4 21.1 l 0 0 v 29.1 c 0.3 11.7 9.1 20.9 19.8 20.7 c 10.4 -0.2 18.7 -9.4 19 -20.7 l 0 0 v -29.1 c 0 -11.7 8.7 -21.1 19.4 -21.1 l 0 0 c 10.7 0 19.4 9.5 19.4 21.1 v 8 c 0 11.7 8.7 21.1 19.4 21.1 c 10.7 0 19.4 -9.5 19.4 -21.1 v -8 c 0.3 -11.7 9.1 -20.9 19.8 -20.7 c 10.4 0.2 18.7 9.4 19 20.7 v 29.1 c 0 11.7 8.7 21.1 19.4 21.1 s 19.6 -9.3 19.6 -21 l 0 0 l 0 0 v -29.1 c 0 -11.7 8.7 -21.1 19.4 -21.1 l 0 0 c 10.7 0 19.4 9.5 19.4 21.1 v 61.4 c 0 11.7 8.7 21.1 19.4 21.1 s 19.4 -9.5 19.4 -21.1 l 0 0 V 198 C 469.5 197.5 469.5 197 469.4 196.5 z M 230.4 227 c -17.2 0 -31 -17.3 -31 -38.8 s 14 -38.8 31 -38.8 s 31 17.3 31 38.8 S 247.6 227 230.4 227 L 230.4 227 z M 296.2 281.8 c -15.6 0 -28.2 -10.1 -28.2 -22.6 s 12.7 -4.9 28.2 -4.9 s 28.2 -7.5 28.2 4.9 C 324.4 271.6 311.8 281.7 296.2 281.8 L 296.2 281.8 z M 359.3 227 c -17.2 0 -31 -17.3 -31 -38.8 s 13.9 -38.8 31 -38.8 s 31 17.3 31 38.8 S 376.4 227 359.3 227 L 359.3 227 z"/>
<g id="Group_13464">
	<ellipse id="Ellipse_598" class="st1" cx="259.2" cy="212.2" rx="33.8" ry="38.8"/>
	<path id="Path_7143" class="st1" d="M 330.9 278.2 c -17 0 -30.7 -7.5 -30.7 4.9 c 0 12.4 13.8 22.6 30.7 22.6 s 30.7 -10.1 30.7 -22.6 S 347.8 278.2 330.9 278.2 z"/>
	<ellipse id="Ellipse_599" class="st1" cx="399.5" cy="212.2" rx="33.8" ry="38.8"/>
</g>
    <rect x="150" y="106" width="49" height="0" fill="rgb(255, 255, 255)"/>
</svg>
