<svg width="600" height="560" viewBox="0 0 600 560" fill="none" xmlns="http://www.w3.org/2000/svg">
  <ellipse opacity="0.15" cx="314.8" cy="280" rx="245.2" ry="245" fill="rgba(0,145,255,0.554)" />
  <ellipse opacity="0.2" cx="314.8" cy="282" rx="163.1" ry="162.9" fill="rgba(0,145,255,0.554)" />
  <ellipse opacity="0.4" cx="314.8" cy="280" rx="77.2" ry="77.2" fill="rgba(0,145,255,0.554)" />
  <path opacity="0.3" fill-rule="evenodd" clip-rule="evenodd"
    d="M 479.6 310.8 L 509.3 310.8 C 509.3 319.3 502.7 326.2 494.4 326.2 C 486.2 326.2 479.6 319.3 479.6 310.8 Z"
    fill="#c4d7ff" />
  <rect opacity="0.5" width="28.8" height="28.8" transform="matrix(0.7,0.7,-0.7,0.7,366.6,376.9)" fill="#ffffff" />
  <rect opacity="0.2" width="12.9" height="12.9" transform="matrix(0.7,0.7,-0.7,0.7,107.4,430.8)" fill="#ffffff" />
  <path opacity="0.3" fill-rule="evenodd" clip-rule="evenodd"
    d="M 303.3 500.2 L 287.8 500.2 C 287.8 508.7 294.7 515.6 303.3 515.6 L 303.3 500.2 Z" fill="#ffffff" />
  <path opacity="0.3" fill-rule="evenodd" clip-rule="evenodd"
    d="M 367.2 66.4 H 356.1 C 356.1 60.3 361.1 55.4 367.2 55.4 V 66.4 Z" fill="#ffffff" />
  <rect opacity="0.2" width="13.2" height="13.2" transform="matrix(-0.7,0.7,-0.7,-0.7,284.5,156.1)" fill="#ffffff" />
  <rect opacity="0.2" width="13.2" height="13.2" transform="matrix(-0.7,0.7,-0.7,-0.7,557.7,109.9)" fill="#ffffff" />
  <rect opacity="0.2" width="13.2" height="13.2" transform="matrix(-0.7,0.7,-0.7,-0.7,59.7,261.8)" fill="#ffffff" />
  <path opacity="0.3" fill-rule="evenodd" clip-rule="evenodd"
    d="M 112.6 202.9 L 112.6 238.2 C 131.5 238.2 146.8 222.4 146.8 202.9 L 112.6 202.9 Z" fill="#ffffff" />
  <ellipse cx="463.6" cy="211.2" rx="14.9" ry="14.9" fill="#e7efff" />
  <ellipse opacity="0.2" cx="526.4" cy="433.6" rx="9.4" ry="9.4" fill="#ffffff" />
  <ellipse opacity="0.2" cx="162.8" cy="68.1" rx="7.2" ry="7.2" fill="#ffffff" />
  <ellipse opacity="0.2" cx="187.6" cy="320.7" rx="12.1" ry="12.1" fill="#ffffff" />

  <!-- uni -->
  <g clip-path="url(#clip2_35683_170863)">
    <path
      d="M 453.1 490.6 C 453.1 503.4 442.8 513.8 429.9 513.8 C 417.1 513.8 406.7 503.4 406.7 490.6 C 406.7 477.8 417.1 467.4 429.9 467.4 C 442.8 467.4 453.1 477.8 453.1 490.6 Z"
      fill="#e6007a" />
    <path fill-rule="evenodd" clip-rule="evenodd"
      d="M 421.1 487 C 421.1 481.4 425.7 476.9 431.2 476.9 C 436.8 476.9 441.3 481.4 441.3 487 C 441.3 492.3 437.2 496.6 432 497 C 432 497 430.7 497.1 430.4 497.2 C 429 497.4 427.7 498.4 427.4 499.9 C 427.4 499.9 427 501.9 427 502.1 C 426.8 502.8 426.1 503.3 425.3 503.1 C 424.6 503 424.1 502.2 424.2 501.5 C 424.3 501.3 427.4 486.6 427.4 486.6 C 427.6 485.9 428.3 485.4 429.1 485.6 C 429.8 485.7 430.3 486.5 430.1 487.2 L 428.8 493.2 L 428.6 494.4 C 428.6 494.5 428.7 494.6 428.7 494.6 C 428.8 494.5 428.9 494.5 429.1 494.5 C 429.2 494.5 429.4 494.4 429.5 494.4 C 430.2 494.3 431.6 494.2 431.6 494.2 C 435.5 494 438.5 490.8 438.5 487 C 438.5 482.8 435 479.5 430.8 479.7 C 427.1 479.9 424 483 423.9 486.8 C 423.9 487.6 424 488.5 424.3 489.3 C 424.6 490.1 424.2 490.9 423.4 491.1 C 422.7 491.4 421.9 491 421.7 490.3 C 421.3 489.2 421.1 488.1 421.1 487 Z M 429.9 501.4 C 430.1 500.5 431 499.9 431.9 500.1 C 432.9 500.3 433.4 501.2 433.2 502.1 C 433.1 503 432.2 503.6 431.2 503.4 C 430.3 503.2 429.7 502.3 429.9 501.4 Z"
      fill="#fefefe" />
  </g>

  <!-- btc -->
  <g clip-path="url(#clip3_35683_170863)">
    <path
      d="M 311.1 325.3 C 346.3 325.3 374.9 296.8 374.9 261.6 C 374.9 226.4 346.3 197.9 311.1 197.9 C 275.9 197.9 247.3 226.4 247.3 261.6 C 247.3 296.8 275.9 325.3 311.1 325.3 Z"
      fill="white" />
    <path
      d="M 290.8 299.1 C 291.6 296.1 292.4 293.1 293.2 290.1 C 293.4 289.2 293.4 289.2 292.6 289 C 287.4 287.6 282.2 286.2 277.1 284.9 C 276.2 284.6 276.2 284.6 276.4 283.7 C 277.1 281.4 277.7 279.2 278.3 276.9 C 278.5 276.1 278.5 276.1 279.3 276.3 C 280.5 276.6 281.6 276.9 282.7 277.1 C 284.4 277.4 285.4 276.8 286 275.1 C 286.4 274.1 286.6 273.1 286.9 272.1 C 289.8 261.3 292.7 250.6 295.6 239.8 C 295.8 238.8 296 237.9 296.2 236.9 C 296.5 235.4 295.8 234.2 294.4 233.6 C 293.3 233.2 292.1 232.9 290.9 232.6 C 290.4 232.4 290.2 232.2 290.4 231.6 C 291 229.3 291.7 226.9 292.3 224.6 C 292.4 223.9 292.7 223.8 293.3 224 C 298.5 225.4 303.6 226.8 308.8 228.2 C 309.7 228.4 309.7 228.4 310 227.5 C 310.7 224.8 311.5 222 312.2 219.3 C 312.3 218.7 312.6 218.5 313.2 218.7 C 315.4 219.3 317.7 219.9 319.9 220.5 C 320.6 220.7 320.7 220.9 320.5 221.6 C 319.7 224.3 319 227.1 318.2 229.8 C 318.1 230.5 318.2 230.7 318.8 230.8 C 320 231.1 321.1 231.5 322.3 231.8 C 323.1 232 323.1 232 323.4 231.1 C 324.1 228.5 324.8 225.8 325.5 223.1 C 325.8 222.1 325.8 222.1 326.8 222.3 C 328.9 222.9 331 223.5 333.2 224 C 334.1 224.3 334.1 224.3 333.8 225.2 C 333.1 228.1 332.3 230.9 331.5 233.8 C 331.3 234.4 331.5 234.7 332.1 234.9 C 335.7 236.4 338.8 238.7 341 242.1 C 342 243.8 342.6 245.6 342.9 247.6 C 343.4 252.1 342.1 256 339.1 259.2 C 336.8 261.6 334.1 262.9 331.1 263.6 C 330.2 263.8 329.3 263.9 328.4 264.2 C 329.3 264.8 330.2 265.4 331.1 266 C 333 267.3 334.7 269 335.8 271.2 C 337.2 273.9 337.8 276.9 337.4 280 C 336.5 286.3 333.1 290.5 327.7 293.1 C 324 294.8 320.1 295.1 316.1 294.6 C 315.5 294.5 315.2 294.6 315 295.3 C 314.2 298.5 313.3 301.7 312.4 304.9 C 309.7 304.2 306.9 303.4 304.2 302.7 C 304.3 302.4 304.3 302.1 304.4 301.8 C 305.1 299.1 305.8 296.4 306.6 293.6 C 306.8 292.9 306.6 292.7 306 292.6 C 305 292.3 303.9 292 302.9 291.8 C 301.6 291.4 301.8 291.3 301.4 292.6 C 300.6 295.5 299.9 298.4 299.1 301.3 C 296.3 300.6 293.5 299.8 290.8 299.1 Z M 302.8 271 C 302.8 271 302.8 271 302.8 271 C 302.3 272.7 301.8 274.4 301.4 276.1 C 301.2 277.1 300.8 278 300.8 279.1 C 300.7 280.1 301 280.5 301.9 280.8 C 304 281.6 306.2 282.1 308.3 282.6 C 310.2 283.1 312 283.4 313.9 283.4 C 319.9 283.3 323.6 277 322.1 271.8 C 321.4 269.4 319.6 268 317.5 267 C 316.2 266.4 314.9 266 313.6 265.6 C 310.8 264.7 308.1 264.1 305.3 263.3 C 305 263.2 304.8 263.3 304.7 263.7 C 304.1 266.1 303.4 268.6 302.8 271 Z M 309.3 246.8 C 308.7 249 308.1 251.2 307.5 253.3 C 307.3 254 307.5 254.2 308.1 254.4 C 309.6 254.7 311 255.1 312.5 255.5 C 314.8 256.2 317.2 256.7 319.6 256.9 C 323.2 257.2 325.9 255.7 327.3 252.6 C 328.6 249.6 328.1 246.3 325.5 244.3 C 323.8 243.1 321.9 242.5 320 241.9 C 317.4 241.1 314.7 240.5 312 239.7 C 311.4 239.5 311.1 239.7 311 240.3 C 310.4 242.5 309.8 244.6 309.3 246.8 Z"
      fill="#f8931d" />
  </g>

  <!-- ankr -->
  <g transform="matrix(1,-0.1,0.1,1,-31.6,50)" fill="none" fill-rule="evenodd">
    <circle transform="matrix(2.3,0,0,2.3,-571.3,-417.5)" fill="#2e6bf6" fill-rule="nonzero" cx="448.8" cy="323.3"
      r="16" />
    <path transform="matrix(2.3,0,0,2.3,-571.3,-417.4)"
      d="M 450.1 313.5 l 6.6 3.3 c 1 0.5 1.6 1.5 1.6 2.6 v 1.6 h -2.4 V 319.4 c 0 -0.1 -0.1 -0.3 -0.3 -0.4 l -6.6 -3.4 c -0.1 -0.1 -0.3 -0.1 -0.4 0 l -6.6 3.4 c -0.2 0.1 -0.3 0.2 -0.3 0.4 v 1.6 H 439.3 V 319.4 c 0 -1.1 0.6 -2.1 1.6 -2.6 l 6.6 -3.3 c 0.8 -0.4 1.8 -0.4 2.6 0 z m 0.8 9.6 c 0 -1.1 -1 -2 -2.1 -2 c -1.2 0 -2.1 0.9 -2.1 2 s 1 2.1 2.1 2.1 s 2.1 -0.9 2.1 -2.1 z m 4.7 4.3 c 0.2 -0.1 0.3 -0.2 0.3 -0.4 v -1.6 h 2.4 v 1.6 c 0 1.1 -0.6 2.1 -1.6 2.6 l -6.6 3.3 c -0.4 0.2 -0.9 0.3 -1.3 0.3 c -0.5 0 -0.9 -0.1 -1.3 -0.3 l -6.6 -3.3 c -1 -0.5 -1.6 -1.5 -1.6 -2.6 v -1.6 h 2.4 v 1.6 c 0 0.1 0.1 0.3 0.3 0.4 l 5.6 2.8 v -2.8 c -1.9 -0.6 -3.3 -2.3 -3.3 -4.3 c 0 -2.4 2 -4.5 4.5 -4.5 c 2.5 0 4.5 2 4.5 4.5 c 0 2.1 -1.4 3.8 -3.3 4.3 V 330.2 l 5.5 -2.8 z"
      fill="#ffffff" />
  </g>

  <!-- eth -->
  <g clip-path="url(#clip5_35683_170863)">
    <path
      d="M 168.9 233.4 C 194.6 233.4 215.5 212.6 215.5 186.9 C 215.5 161.2 194.6 140.3 168.9 140.3 C 143.1 140.3 122.3 161.2 122.3 186.9 C 122.3 212.6 143.1 233.4 168.9 233.4 Z"
      fill="#627eea" />
    <path d="M 170.3 156.6 V 179 L 189.2 187.5 L 170.3 156.6 Z" fill="white" fill-opacity="0.602" />
    <path d="M 170.3 156.6 L 151.4 187.5 L 170.3 179 V 156.6 Z" fill="white" />
    <path d="M 170.3 201.9 V 217.1 L 189.2 191 L 170.3 201.9 Z" fill="white" fill-opacity="0.602" />
    <path d="M 170.3 217.1 V 201.9 L 151.4 191 L 170.3 217.1 Z" fill="white" />
    <path d="M 170.3 198.4 L 189.2 187.5 L 170.3 179 V 198.4 Z" fill="white" fill-opacity="0.2" />
    <path d="M 151.4 187.5 L 170.3 198.4 V 179 L 151.4 187.5 Z" fill="white" fill-opacity="0.602" />
  </g>

  <!-- polkadot -->
  <g clip-path="url(#clip7_35683_170863)">
    <ellipse cx="262.6" cy="62.5" rx="27.5" ry="27.5" fill="#ffe7f1" />
    <path
      d="M 262.2 58.7 C 263 60.2 261.2 60.6 260.3 60.7 C 259 60.8 258.8 60.1 259 59.1 C 259.1 58.8 259.3 58.5 259.5 58.3 C 259.8 58.1 260.1 57.9 260.5 57.9 C 260.8 57.8 261.1 57.9 261.4 58.1 C 261.7 58.2 262 58.5 262.2 58.7 Z"
      fill="#fc157b" />
    <path
      d="M 267.2 56.1 C 266.3 63.3 278.9 61.8 278.7 67.6 C 279.9 65.9 280.5 61.5 276.8 59.2 C 273.5 57.2 269.3 58.3 267.2 56.1 Z"
      fill="#fc157b" />
    <path d="M 274.5 53.4 C 274.4 53.3 274.3 53.2 274.3 53.2 C 274.3 53.2 274.4 53.3 274.5 53.4 Z" fill="#fc157b" />
    <path
      d="M 277.4 58.6 L 277.4 58.6 C 277.3 58.4 277.2 58.2 277 58 C 276.6 57.4 276 57 275.3 56.8 C 274.9 56.7 274.4 56.6 273.9 56.6 C 273.4 56.6 272.9 56.6 272.4 56.5 C 271.4 56.5 270.4 56.4 269.4 56.1 C 269.2 56 268.9 55.9 268.7 55.8 C 268.5 55.8 268.4 55.8 268.3 55.7 C 268.2 55.6 268 55.6 267.9 55.5 C 267.5 55.3 267 55 266.6 54.6 C 265.9 53.9 265.3 53 264.6 52.3 C 264.1 51.5 263.5 50.7 262.8 50 C 262.2 49.3 261.4 48.7 260.6 48.2 C 259.7 47.8 258.7 47.5 257.8 47.4 C 258.8 47.3 259.8 47.4 260.8 47.8 C 261.7 48.2 262.6 48.7 263.4 49.4 C 263.8 49.9 264.3 50.4 264.7 50.9 C 267.9 50.3 270.5 50.8 272.4 51.9 L 272.5 51.9 C 273.1 52.3 273.7 52.7 274.3 53.2 C 274.3 53.2 274.4 53.3 274.5 53.4 C 274.9 53.8 275.3 54.2 275.7 54.6 L 275.7 54.7 C 276.9 56.2 277.4 57.7 277.4 58.6 Z"
      fill="#fc157b" />
    <path d="M 277.4 58.6 L 277.4 58.6 L 277.4 58.6 Z" fill="#fc157b" />
    <path
      d="M 257.9 48.3 C 258.7 48.5 259.6 48.8 260.1 49.4 C 260.6 50 260.8 50.8 261 51.6 C 261.1 52.2 261.2 52.8 261.4 53.3 C 261.5 53.6 261.7 53.8 261.8 54.1 C 262 54.3 262.2 54.5 262.2 54.7 C 262.3 54.8 262.3 54.8 262.3 54.8 C 262.3 54.9 262.2 54.9 262.2 54.9 C 261.9 55.3 261.2 54.9 260.9 54.8 C 260.4 54.5 259.9 54.2 259.6 53.8 C 258.4 52.5 257.8 50.6 257.9 49 C 257.9 48.7 257.9 48.5 257.9 48.3 Z"
      fill="#fc157b" />
    <path
      d="M 271.5 62.8 C 269.7 67.7 277.6 71 274.7 76 C 277.7 74.7 279.2 70.9 277.9 67.9 C 276.8 65.2 273.5 64.3 271.5 62.8 Z"
      fill="#fc157b" />
    <path
      d="M 261 69.2 C 261.5 68.9 262 68.6 262.5 68.4 C 263.1 68.1 263.7 68 264.3 67.8 C 265.4 67.6 266.6 67.6 267.6 67.2 C 268.1 67 268.5 66.7 268.9 66.4 C 269.3 66 269.5 65.6 269.7 65.1 C 269.9 64.6 270 64.1 269.9 63.5 C 269.9 63 269.7 62.4 269.5 61.9 C 270 62.3 270.3 62.9 270.5 63.5 C 270.6 64.1 270.7 64.7 270.5 65.3 C 270.4 66 270 66.6 269.6 67.1 C 269.1 67.5 268.5 67.9 267.9 68.1 C 267.3 68.3 266.7 68.4 266.1 68.5 C 265.5 68.5 264.9 68.5 264.3 68.6 C 263.2 68.6 262.1 68.8 261 69.2 Z"
      fill="#fc157b" />
    <path
      d="M 272.2 77.8 C 272 78 271.8 78.1 271.6 78.3 C 271.4 78.4 271.2 78.5 271 78.6 C 270.6 78.8 270.1 78.9 269.6 78.9 C 268.3 78.9 267.3 77.9 266.8 76.8 C 266.4 76 266.1 75.2 265.7 74.5 C 265.1 73.4 264 72.6 262.7 72.7 C 262.2 72.8 261.7 73 261.4 73.5 C 260.6 74.7 261.7 76.3 263.1 76.1 C 263.2 76.1 263.4 76 263.5 76 C 263.6 76 263.7 75.9 263.8 75.8 C 264 75.7 264.1 75.4 264.2 75.2 C 264.3 75 264.3 74.7 264.3 74.4 C 264.2 74.1 264 73.9 263.8 73.8 C 264.1 73.9 264.3 74.1 264.4 74.4 C 264.5 74.7 264.5 75 264.5 75.3 C 264.4 75.6 264.3 75.9 264.1 76.1 C 264 76.2 263.8 76.4 263.7 76.4 C 263.6 76.5 263.4 76.6 263.3 76.6 C 262.9 76.8 262.6 76.8 262.3 76.7 C 261.8 76.7 261.4 76.5 261 76.2 C 260.6 75.9 260.3 75.4 259.9 75 C 259.4 74.6 258.9 74.2 258.3 73.9 C 257.9 73.7 257.5 73.6 257.1 73.5 C 256.9 73.5 256.6 73.4 256.4 73.4 C 256.3 73.4 255.8 73.3 255.8 73.3 C 256.4 72.7 257.2 72.2 258 71.7 C 258.8 71.2 259.6 70.8 260.5 70.6 C 261.5 70.3 262.5 70.2 263.4 70.4 C 263.9 70.4 264.4 70.5 264.9 70.7 C 265.4 70.9 265.8 71.2 266.2 71.6 C 266.6 71.9 266.9 72.4 267.1 72.8 C 267.3 73.3 267.5 73.8 267.6 74.3 C 267.9 75.7 267.7 78 269.7 78.3 C 269.8 78.3 269.9 78.4 270 78.4 L 270.3 78.4 C 270.5 78.4 270.7 78.3 270.9 78.3 C 271.3 78.2 271.8 78 272.2 77.8 Z"
      fill="#fc157b" />
    <path d="M 261.1 76.3 L 261.1 76.2 L 261.1 76.3 Z" fill="#fc157b" />
    <path
      d="M 259.4 55.7 C 259.3 55.9 259.2 56.2 259 56.4 C 258.7 56.8 258.3 57.1 257.9 57.3 C 257.4 57.5 257 57.6 256.5 57.7 C 256.4 57.7 256.3 57.7 256.2 57.7 C 256 57.7 255.7 57.8 255.4 58 C 255.2 58.2 255.1 58.4 255 58.7 C 255 58.8 254.9 59 254.9 59.1 C 254.9 59.5 254.9 59.9 254.8 60.3 C 254.7 61.1 254.5 61.9 254.1 62.6 C 253.7 63.6 253.2 64.3 253.3 65.4 C 253.4 66.2 253.7 66.6 254.2 67.1 C 255.1 68 257.1 68.4 256.6 70.6 C 256.4 72 254.2 73.3 251.1 73.8 C 251.4 73.8 250.7 72.6 250.7 72.5 C 250.4 72 250 71.5 249.7 71 C 249.2 69.9 249 68.6 249.2 67.4 C 249.4 66.2 250.3 65.2 251.1 64.3 C 252 63.1 253 61.6 253.2 60.1 C 253.2 59.8 253.3 59.3 253.4 58.9 C 253.4 58.4 253.6 57.9 253.8 57.5 C 254 57.2 254.2 56.9 254.4 56.7 C 254.5 56.6 254.6 56.4 254.7 56.2 C 254.7 56.1 254.7 55.9 254.6 55.7 L 250.3 47.9 L 256.7 55.6 C 256.8 55.7 256.9 55.8 257 55.9 C 257.1 55.9 257.2 55.9 257.4 56 C 257.5 56 257.6 55.9 257.7 55.9 C 257.9 55.8 258 55.7 258 55.6 C 258.1 55.5 258.2 55.4 258.2 55.3 C 258.2 55.1 258.1 55 258.1 54.9 C 257.6 54.3 257.1 53.7 256.6 53.1 L 254.9 50.9 L 251.3 46.5 L 249.2 43.8 L 251.8 46.2 L 255.6 50.3 L 257.4 52.4 C 258.1 53.1 258.7 53.8 259.3 54.6 L 259.4 54.7 L 259.4 54.9 C 259.5 55.2 259.5 55.4 259.4 55.7 Z"
      fill="#fc157b" />
    <path d="M 261 76.2 C 260.7 75.9 260.4 75.6 260.1 75.3 C 260.4 75.6 260.7 75.9 261 76.2 Z" fill="#fc157b" />
  </g>

  <!-- mkr -->
  <g clip-path="url(#clip9_35683_170863)">
    <path
      d="M 538.5 231 C 550.4 231 560 221.4 560 209.6 C 560 197.7 550.4 188.1 538.5 188.1 C 526.7 188.1 517.1 197.7 517.1 209.6 C 517.1 221.4 526.7 231 538.5 231 Z"
      fill="#27ab9b" />
    <path d="M 528 216 V 205.9 L 535.6 211.7 V 216 H 537.6 V 211.3 C 537.6 210.9 537.4 210.6 537.1 210.3 L 527.9 203.4 C 527.1 202.8 526 203.3 526 204.3 V 216 H 528 Z M 549.2 216 V 205.9 L 541.5 211.7 V 216 H 539.5 V 211.3 C 539.5 210.9 539.7 210.6 540 210.3 L 549.3 203.4 C 550 202.8 551.1 203.3 551.1 204.3 V 216 H 549.2 Z" fill="white" />
        </g>
  <!--arbitrum-->

  <g clip-path="url(#a)" transform="matrix(1,-0.1,0.1,1,-14.6,50.2)">
    <path fill="#213147" transform="matrix(0.2,0,0,0.2,165.7,164.8)" d="M 1012.7 43 c 70.7 0 128 -57.3 128 -128 C 1140.7 -155.7 1083.4 -213 1012.7 -213 C 942 -213 884.7 -155.7 884.7 -85 c 0 70.7 57.3 128 128 128 Z"/>
    <g clip-path="url(#b)" transform="matrix(0.2,0,0,0.2,165.6,164.8)">
        <path fill="#213147" d="M 932.4 -123.4 v 76.8 C 932.4 -41.7 935 -37.2 939.3 -34.7 l 66.5 38.4 C 1010 6.2 1015.3 6.2 1019.5 3.7 l 66.5 -38.4 C 1090.3 -37.2 1092.9 -41.7 1092.9 -46.6 V -123.4 C 1092.9 -128.3 1090.3 -132.9 1086.1 -135.3 l -66.5 -38.4 C 1015.3 -176.2 1010 -176.2 1005.8 -173.8 L 939.2 -135.3 C 935 -132.9 932.4 -128.3 932.4 -123.4 Z"/>
        <path fill="#12aaff" d="M 1027.2 -70.1 l -9.5 26 C 1017.4 -43.4 1017.4 -42.6 1017.7 -41.9 l 16.3 44.8 l 18.9 -10.9 l -22.7 -62.1 c -0.5 -1.4 -2.5 -1.4 -3.1 0 Z m 19 -43.8 c -0.5 -1.4 -2.5 -1.4 -3.1 0 l -9.5 26 C 1033.4 -87.1 1033.4 -86.3 1033.7 -85.6 l 26.8 73.3 l 18.9 -10.9 l -33.1 -90.7 Z"/>
        <path fill="#9dcced" d="M 1012.7 -170.9 c 0.5 0 0.9 0.1 1.4 0.4 l 72 41.6 C 1086.9 -128.5 1087.4 -127.6 1087.4 -126.6 v 83.1 c 0 1 -0.5 1.8 -1.4 2.3 l -72 41.6 C 1013.6 0.7 1013.1 0.8 1012.7 0.8 c -0.5 0 -0.9 -0.1 -1.4 -0.4 l -72 -41.5 C 938.5 -41.6 937.9 -42.5 937.9 -43.4 V -126.6 c 0 -1 0.5 -1.9 1.4 -2.3 l 72 -41.6 C 1011.7 -170.7 1012.2 -170.9 1012.7 -170.9 Z m 0 -12.1 c -2.6 0 -5.1 0.7 -7.4 2 L 933.2 -139.5 C 928.6 -136.8 925.8 -131.9 925.8 -126.6 v 83.1 C 925.8 -38.1 928.6 -33.2 933.2 -30.6 l 72 41.6 C 1007.5 12.3 1010.1 13 1012.7 13 c 2.6 0 5.1 -0.7 7.4 -2 l 72 -41.6 C 1096.7 -33.2 1099.5 -38.1 1099.5 -43.4 V -126.6 C 1099.5 -131.9 1096.7 -136.8 1092.1 -139.5 l -72 -41.6 C 1017.8 -182.3 1015.3 -183 1012.7 -183 Z"/>
        <path fill="#213147" d="M 965 -12.2 l 6.6 -18.1 l 13.3 11.1 l -12.5 11.4 l -7.5 -4.3 Z"/>
        <path fill="#ffffff" d="M 1006.6 -132.5 H 988.3 c -1.4 0 -2.6 0.9 -3.1 2.1 L 946.1 -23.1 l 18.9 10.9 l 43.1 -118.1 c 0.4 -1.1 -0.4 -2.2 -1.5 -2.2 Z m 31.9 0 h -18.3 c -1.4 0 -2.6 0.9 -3.1 2.1 L 972.5 -7.9 l 18.9 10.9 L 1040.1 -130.4 C 1040.2 -130.9 1040.2 -131.4 1039.9 -131.9 C 1039.6 -132.3 1039.1 -132.5 1038.5 -132.5 Z"/>
    </g>
</g>
  <!--bnb-->

  <g fill="none" transform="matrix(1,0.1,-0.1,1,48.7,-24.6)">
    <circle fill="#f3ba2f" transform="matrix(2,0,0,2,-220.1,-410.2)" cx="231.8" cy="411" r="16"/>
    <path fill="#ffffff" transform="matrix(2,0,0,2,-220.1,-410.2)" d="M 227.9 409.5 L 231.8 405.6 l 3.9 3.9 l 2.3 -2.3 L 231.8 401 l -6.1 6.1 l 2.3 2.3 z M 221.8 411 l 2.3 -2.3 L 226.3 411 l -2.3 2.3 L 221.8 411 z m 6.1 1.6 L 231.8 416.5 l 3.9 -3.9 l 2.3 2.3 L 231.8 421 l -6.1 -6.1 l 0 0 l 2.3 -2.3 z M 237.3 411 l 2.3 -2.3 L 241.8 411 l -2.3 2.3 L 237.3 411 z m -3.2 0 h 0 V 411 L 231.8 413.3 l -2.3 -2.3 l 0 0 l 0 0 l 0.4 -0.4 l 0.2 -0.2 L 231.8 408.8 l 2.3 2.3 z"/>
</g>
  <!--usdt-->
  
  <g transform="matrix(1,0.1,-0.1,1,13.5,-56)" fill="none" fill-rule="evenodd">
    <circle fill="#26a17b" transform="matrix(2.2,0,0,2.2,-25.4,-25.4)" cx="220.8" cy="48.6" r="16"/>
    <path fill="#ffffff" transform="matrix(2.2,0,0,2.2,-25.3,-26.6)" d="M 222.7 50.5 v 0 c -0.1 0 -0.7 0 -1.9 0 c -1 0 -1.7 0 -2 0 v 0 c -3.9 -0.2 -6.8 -0.8 -6.8 -1.7 c 0 -0.8 2.9 -1.5 6.8 -1.7 v 2.6 c 0.3 0 1 0.1 2 0.1 c 1.2 0 1.8 0 1.9 -0.1 v -2.6 c 3.9 0.2 6.8 0.9 6.8 1.7 c 0 0.8 -2.9 1.5 -6.8 1.7 m 0 -3.6 v -2.4 h 5.4 V 41 H 213.4 v 3.6 h 5.4 v 2.4 c -4.4 0.2 -7.7 1.1 -7.7 2.1 c 0 1 3.3 1.9 7.7 2.1 v 7.6 h 3.9 v -7.6 c 4.4 -0.2 7.7 -1.1 7.7 -2.1 c 0 -1 -3.3 -1.9 -7.7 -2.1"/>
</g>

<!-- aave -->
  <defs><linearGradient id="a" x1="0.907" y1="0.227" x2="0.163" y2="0.853" gradientUnits="objectBoundingBox"><stop offset="0" stop-color="#b6509e"/><stop offset="1" stop-color="#2ebac6"/></linearGradient><clipPath id="c"><rect width="800" height="800"/></clipPath></defs><g id="b" clip-path="url(#c)"><circle cx="-214.5" cy="2633.9" r="388" transform="matrix(0.1,0,0,0.1,120.2,78.7)" fill="url(#a)"/><path d="M -44.5 2788 L -175.7 2470.8 C -183.1 2454.4 -194.1 2446.4 -208.6 2446.4 H -220.2 c -14.5 0 -25.5 8 -32.9 24.4 L -310.2 2609 H -353.4 C -366.3 2609 -376.8 2619.5 -376.9 2632.4 v 0.3 C -376.8 2645.7 -366.3 2656.2 -353.4 2656.2 H -330.2 L -384.6 2788 C -385.7 2790.9 -386.2 2793.9 -386.3 2797 c 0 7.4 2.3 13.2 6.4 17.7 S -369.8 2821.4 -362.4 2821.4 C -357.5 2821.3 -352.8 2819.7 -348.9 2816.9 c 4.2 -2.9 7.1 -7.1 9.4 -11.9 l 60 -148.8 h 41.6 C -225 2656.2 -214.5 2645.7 -214.4 2632.8 v -0.6 C -214.5 2619.2 -225 2608.7 -237.9 2608.7 H -260.2 L -214.4 2494.6 L -89.6 2805 c 2.3 4.8 5.2 9 9.4 11.9 C -76.3 2819.8 -71.6 2821.3 -66.7 2821.4 q 11.1 0 17.4 -6.7 c 4.2 -4.5 6.4 -10.3 6.4 -17.7 C -42.7 2793.9 -43.3 2790.8 -44.5 2788 Z" transform="matrix(0.1,0,0,0.1,120.1,78.8)" fill="#ffffff"/></g>

</svg>